<svg id="Layer_5" enable-background="new 0 0 64 64" height="512" viewBox="0 0 64 64" width="512" xmlns="http://www.w3.org/2000/svg"><g><g><g><path d="m34 58h-28c-2.209 0-4-1.791-4-4v-48c0-2.209 1.791-4 4-4h28c2.209 0 4 1.791 4 4v48c0 2.209-1.791 4-4 4z" fill="#969faa"/></g><g><path d="m12 52-1.71 1.71c-.18.18-.44.29-.7.29h-.59c-.55 0-1-.45-1-1v-2c0-.55.45-1 1-1h.59c.26 0 .52.11.7.29z" fill="#e6e9ed"/></g><g><path d="m27 2-1 4h-12l-1-4z" fill="#fcd770"/></g><g><path d="m22 51v2c0 .55-.45 1-1 1h-2c-.55 0-1-.45-1-1v-2c0-.55.45-1 1-1h2c.55 0 1 .45 1 1z" fill="#e6e9ed"/></g><g><path d="m32 51v2c0 .55-.45 1-1 1h-.59c-.26 0-.52-.11-.7-.29l-1.71-1.71 1.71-1.71c.18-.18.44-.29.7-.29h.59c.55 0 1 .45 1 1z" fill="#e6e9ed"/></g><g><path d="m34 30v15c0 .55-.45 1-1 1h-26c-.55 0-1-.45-1-1v-34c0-.55.45-1 1-1h25v18c0 1.1.9 2 2 2z" fill="#69d6f4"/></g><g><circle cx="25" cy="39" fill="#e6e9ed" r="3"/></g><g><path d="m60 8h-22-4c-1.1 0-2 .9-2 2v18c0 1.1.9 2 2 2h26c1.1 0 2-.9 2-2v-18c0-1.1-.9-2-2-2z" fill="#e6e9ed"/></g><g><path d="m56 40c0-1.1.9-2 2-2 .55 0 1.05.22 1.41.59.37.36.59.86.59 1.41v9.03c0 1.3-.42 2.56-1.2 3.6l-1.8 2.4v2.97h-16v-2.95l-1.81-2.44c-.77-1.03-1.19-2.29-1.19-3.57v-.97c0-2.68-.63-5.33-1.83-7.73-.11-.23-.17-.47-.17-.73 0-.89.72-1.61 1.62-1.61h.1c.1 0 .19 0 .28.01 3.34.14 6 2.89 6 6.27v-14.28-4c0-.3.06-.58.18-.83.32-.69 1.02-1.17 1.82-1.17.55 0 1.05.22 1.41.59.37.36.59.86.59 1.41v4 8c0-1.1.9-2 2-2 .55 0 1.05.22 1.41.59.37.36.59.86.59 1.41 0-1.1.9-2 2-2 .55 0 1.05.22 1.41.59.37.36.59.86.59 1.41z" fill="#f0d0b4"/></g><g><path d="m57 58h2v4h-20v-4h2z" fill="#b4dd7f"/></g><g><path d="m58 26h-10c0-.55-.22-1.05-.59-1.41-.36-.37-.86-.59-1.41-.59-.8 0-1.5.48-1.82 1.17-.16-.22-.27-.47-.33-.75-1.09-5.57-7.85-6.42-7.85-6.42v-1-.15c0-.89.22-1.75.63-2.51s1-1.42 1.74-1.92c.41-.27.89-.42 1.38-.42.79 0 1.53.37 2 1l3.91 5.21c.88 1.18 2.02 2.13 3.34 2.79s2.77 1 4.24 1h.76c1.1 0 2.1.45 2.83 1.17.72.73 1.17 1.73 1.17 2.83z" fill="#ff826e"/></g><g><path d="m24 24v8h-10v-8l-4-1v-4.72c0-1.91 1.35-3.55 3.22-3.92l1.78-.36h1c0 .83.34 1.58.88 2.12s1.29.88 2.12.88 1.58-.34 2.12-.88.88-1.29.88-2.12h1l1.78.36c1.87.37 3.22 2.01 3.22 3.92v4.72z" fill="#fcd770"/></g><g><circle cx="15" cy="39" fill="#ff826e" r="3"/></g></g><g><path d="m60 7h-21v-1c0-2.757-2.243-5-5-5h-28c-2.757 0-5 2.243-5 5v48c0 2.757 2.243 5 5 5h28c2.746 0 4.979-2.226 4.997-4.968l1.003 1.347v1.621h-2v6h22v-6h-2v-1.634l1.6-2.134c.903-1.204 1.4-2.695 1.4-4.199v-9.033c0-1.654-1.346-3-3-3-.395 0-.77.081-1.116.22-.345-1.275-1.501-2.22-2.884-2.22-.771 0-1.468.301-2 .78-.532-.48-1.229-.78-2-.78-.352 0-.686.072-1 .184v-4.184h11c1.654 0 3-1.346 3-3v-18c0-1.654-1.346-3-3-3zm-34.281-4-.5 2h-10.438l-.5-2zm11.281 51c0 1.654-1.346 3-3 3h-28c-1.654 0-3-1.346-3-3v-48c0-1.654 1.346-3 3-3h6.219l1 4h13.562l1-4h6.219c1.654 0 3 1.346 3 3v1h-3c-1.302 0-2.402.839-2.816 2h-24.184c-1.103 0-2 .897-2 2v34c0 1.103.897 2 2 2h26c1.103 0 2-.897 2-2v-5.385-8.615h2v6.081c-1.144.279-1.999 1.305-2 2.534 0 .403.096.809.277 1.171 1.127 2.251 1.723 4.771 1.723 7.288v.962.001zm-4-23.184v14.184h-26v-34h24v17c0 1.302.839 2.402 2 2.816zm4-13.646v-.17-.149c0-1.45.721-2.796 1.927-3.601.634-.423 1.563-.264 2.021.346l3.91 5.214c.97 1.293 2.248 2.36 3.695 3.083 1.447.725 3.066 1.107 4.683 1.107h.764c1.304 0 2.416.836 2.829 2h-8.013c-.414-1.161-1.514-2-2.816-2-.503 0-.97.136-1.387.356-1.335-4.314-5.718-5.757-7.613-6.186zm6 22.11c-1.049-1.107-2.437-1.883-4-2.161v-6.119h4zm15 21.72h-18v-2h18zm-8-24c.551 0 1 .448 1 1v4h2v-4c0-.552.449-1 1-1s1 .448 1 1v2 2h2v-2c0-.552.449-1 1-1s1 .448 1 1v9.033c0 1.074-.355 2.14-1 3l-2 2.667v2.3h-14v-2.285l-2.012-2.7c-.637-.855-.988-1.912-.988-2.979v-.962c0-2.826-.669-5.656-1.935-8.184-.043-.084-.065-.18-.065-.274 0-.34.276-.616.616-.616h.108c2.909 0 5.276 2.367 5.276 5.276v1.682 2.025h2v-2.025-1.682-18.276c0-.551.449-1 1-1s1 .449 1 1v12 4h2v-4c0-.552.449-1 1-1zm11-9c0 .551-.449 1-1 1h-11v-2h10v-1c0-2.757-2.243-5-5-5h-.764c-1.308 0-2.618-.309-3.789-.895-1.171-.585-2.204-1.448-2.989-2.495l-3.911-5.214c-.655-.874-1.7-1.396-2.793-1.396-.692 0-1.361.203-1.937.586-1.764 1.177-2.817 3.145-2.817 5.265v.149 1.883.735l.553.276c.892.447 1.447 1.344 1.447 2.342v4.764h2v-4.764c0-.952-.288-1.851-.8-2.602 1.815.709 4.117 2.146 4.671 4.978.046.234.126.456.225.67-.057.231-.096.469-.096.718v3h-9c-.551 0-1-.449-1-1v-18c0-.551.449-1 1-1h26c.551 0 1 .449 1 1z"/><path d="m9.586 49h-.586c-1.103 0-2 .897-2 2v2c0 1.103.897 2 2 2h.586c.534 0 1.036-.208 1.414-.586l2.414-2.414-2.414-2.414c-.378-.378-.88-.586-1.414-.586zm0 4h-.586v-2h.586l1 1z"/><path d="m21 49h-2c-1.103 0-2 .897-2 2v2c0 1.103.897 2 2 2h2c1.103 0 2-.897 2-2v-2c0-1.103-.897-2-2-2zm-2 4v-2h2l.001 2z"/><path d="m31 49h-.586c-.534 0-1.036.208-1.414.586l-2.414 2.414 2.414 2.414c.378.378.88.586 1.414.586h.586c1.103 0 2-.897 2-2v-2c0-1.103-.897-2-2-2zm-.586 4-1-1 1-1h.586l.001 2z"/><path d="m24.981 13.376-1.785-.357-2.196-.019v1c0 1.103-.897 2-2 2s-2-.897-2-2v-1h-2l-1.981.376c-2.329.466-4.019 2.528-4.019 4.903v5.501l4 1v8.22h12v-8.219l4-1v-5.501c0-2.376-1.69-4.438-4.019-4.904zm2.019 8.843-2 .5v-3.719h-2v12h-8v-12h-2v3.719l-2-.5v-3.94c0-1.425 1.014-2.662 2.412-2.942l1.687-.337h.027c.445 1.723 2.013 3 3.874 3s3.428-1.277 3.874-3l1.715.337c1.397.28 2.411 1.517 2.411 2.942z"/><path d="m15 35c-2.206 0-4 1.794-4 4s1.794 4 4 4 4-1.794 4-4-1.794-4-4-4zm0 6c-1.103 0-2-.897-2-2s.897-2 2-2 2 .897 2 2-.897 2-2 2z"/><path d="m25 35c-2.206 0-4 1.794-4 4s1.794 4 4 4 4-1.794 4-4-1.794-4-4-4zm0 6c-1.103 0-2-.897-2-2s.897-2 2-2 2 .897 2 2-.897 2-2 2z"/><path d="m49 11h2v2h-2z"/><path d="m57 11h2v2h-2z"/><path d="m53 11h2v2h-2z"/></g></g></svg>